<?xml version="1.0" standalone="no"?>
<!DOCTYPE svg PUBLIC "-//W3C//DTD SVG 20010904//EN"
 "http://www.w3.org/TR/2001/REC-SVG-20010904/DTD/svg10.dtd">
<svg version="1.0" xmlns="http://www.w3.org/2000/svg"
 width="250.000000pt" height="250.000000pt" viewBox="0 0 250.000000 250.000000"
 preserveAspectRatio="xMidYMid meet">
<metadata>
Created by potrace 1.11, written by Peter Selinger 2001-2013
</metadata>
<g transform="translate(0.000000,250.000000) scale(0.100000,-0.100000)"
fill="#000000" stroke="none">
<path d="M1096 2419 c-389 -57 -727 -304 -896 -654 -85 -176 -121 -347 -115
-545 5 -129 6 -140 30 -244 85 -363 364 -680 717 -816 127 -49 237 -70 393
-75 546 -18 1039 356 1168 885 25 102 28 127 32 255 13 466 -250 894 -670
1091 -81 37 -164 67 -221 78 -11 2 -30 7 -44 10 -61 14 -92 17 -210 20 -69 2
-151 0 -184 -5z m384 -129 c381 -83 689 -372 795 -745 187 -663 -296 -1325
-985 -1349 -543 -18 -1010 377 -1086 919 -14 102 -11 208 11 350 16 110 104
309 180 410 183 244 428 390 720 429 117 16 254 11 365 -14z"/>
<path d="M1222 2028 c-29 -29 -7 -110 28 -101 16 4 20 14 20 53 0 34 -4 50
-16 54 -20 8 -18 8 -32 -6z"/>
<path d="M1508 1647 l-256 -132 46 -11 c117 -27 197 -112 204 -218 3 -32 4
-34 16 -19 7 10 54 99 104 198 50 99 103 203 118 230 32 61 42 85 32 84 -4 -1
-123 -60 -264 -132z"/>
<path d="M1192 1442 c-38 -12 -93 -63 -112 -105 -13 -27 -18 -59 -16 -93 10
-163 199 -240 322 -131 105 92 76 268 -53 323 -33 14 -101 17 -141 6z"/>
<path d="M479 1278 c-22 -8 -25 -31 -6 -45 16 -13 86 -8 101 7 29 29 -41 58
-95 38z"/>
<path d="M1922 1274 c-9 -6 -13 -18 -9 -28 6 -15 15 -18 57 -18 45 0 50 2 50
27 0 14 -3 25 -7 26 -47 5 -79 2 -91 -7z"/>
<path d="M952 1168 c-23 -46 -82 -162 -132 -257 -49 -96 -88 -176 -86 -178 1
-2 90 42 197 97 107 55 224 114 261 132 37 18 68 35 68 38 0 3 -14 7 -32 8
-40 3 -116 37 -146 65 -32 29 -73 112 -74 148 -1 16 -4 29 -7 29 -4 0 -26 -37
-49 -82z"/>
<path d="M1226 575 c-20 -21 -21 -79 -1 -95 23 -19 45 5 45 50 0 47 -21 68
-44 45z"/>
</g>
</svg>
